<?xml version="1.0" encoding="utf-8"?>
<svg width="374" height="134" viewBox="0 0 374 134" fill="none" xmlns="http://www.w3.org/2000/svg">
  <defs>
    <clipPath id="clip_path_1">
      <rect width="178" height="134" />
    </clipPath>
    <clipPath id="clip_path_2">
      <rect width="196" height="134" />
    </clipPath>
  </defs>
  <g>
    <path d="M25.08 106.48L25.08 44L0.44 44L0.44 29.48L67.54 29.48L67.54 44L42.9 44L42.9 106.48L25.08 106.48ZM74.58 106.48L74.58 47.3L90.97 47.3L90.97 64.02L88.66 59.18Q91.3 52.91 97.13 49.665Q102.96 46.42 111.32 46.42L111.32 62.26Q110.22 62.15 109.34 62.095Q108.46 62.04 107.47 62.04Q100.43 62.04 96.085 66.055Q91.74 70.07 91.74 78.54L91.74 106.48L74.58 106.48ZM154 106.48L154 94.93L152.9 92.4L152.9 71.72Q152.9 66.22 149.545 63.14Q146.19 60.06 139.26 60.06Q134.53 60.06 129.965 61.545Q125.4 63.03 122.21 65.56L116.05 53.57Q120.89 50.16 127.71 48.29Q134.53 46.42 141.57 46.42Q155.1 46.42 162.58 52.8Q170.06 59.18 170.06 72.71L170.06 106.48L154 106.48ZM135.96 107.36Q129.03 107.36 124.08 104.995Q119.13 102.63 116.49 98.56Q113.85 94.49 113.85 89.43Q113.85 84.15 116.435 80.19Q119.02 76.23 124.63 73.975Q130.24 71.72 139.26 71.72L154.99 71.72L154.99 81.73L141.13 81.73Q135.08 81.73 132.825 83.71Q130.57 85.69 130.57 88.66Q130.57 91.96 133.155 93.885Q135.74 95.81 140.25 95.81Q144.54 95.81 147.95 93.775Q151.36 91.74 152.9 87.78L155.54 95.7Q153.67 101.42 148.72 104.39Q143.77 107.36 135.96 107.36Z" fill="#292C27" clip-path="url(#clip_path_1)" />
    <path d="M23.98 106.48L-0.88 47.3L16.83 47.3L37.51 98.23L28.71 98.23L50.16 47.3L66.66 47.3L41.69 106.48L23.98 106.48ZM101.42 107.36Q91.3 107.36 83.655 103.4Q76.01 99.44 71.83 92.565Q67.65 85.69 67.65 76.89Q67.65 67.98 71.775 61.105Q75.9 54.23 83.05 50.325Q90.2 46.42 99.22 46.42Q107.91 46.42 114.895 50.105Q121.88 53.79 125.95 60.665Q130.02 67.54 130.02 77.11Q130.02 78.1 129.91 79.365Q129.8 80.63 129.69 81.73L81.62 81.73L81.62 71.72L120.67 71.72L114.07 74.69Q114.07 70.07 112.2 66.66Q110.33 63.25 107.03 61.325Q103.73 59.4 99.33 59.4Q94.93 59.4 91.575 61.325Q88.22 63.25 86.35 66.715Q84.48 70.18 84.48 74.91L84.48 77.55Q84.48 82.39 86.625 86.075Q88.77 89.76 92.675 91.685Q96.58 93.61 101.86 93.61Q106.59 93.61 110.165 92.18Q113.74 90.75 116.71 87.89L125.84 97.79Q121.77 102.41 115.61 104.885Q109.45 107.36 101.42 107.36ZM141.46 106.48L141.46 24.86L158.62 24.86L158.62 106.48L141.46 106.48ZM181.06 107.36Q176.66 107.36 173.525 104.335Q170.39 101.31 170.39 96.58Q170.39 91.85 173.525 88.935Q176.66 86.02 181.06 86.02Q185.57 86.02 188.65 88.935Q191.73 91.85 191.73 96.58Q191.73 101.31 188.65 104.335Q185.57 107.36 181.06 107.36Z" fill="#30AF5B" clip-path="url(#clip_path_2)" transform="translate(178 0)" />
  </g>
</svg>